<?xml version="1.0" standalone="no"?>
<!DOCTYPE svg PUBLIC "-//W3C//DTD SVG 20010904//EN"
 "http://www.w3.org/TR/2001/REC-SVG-20010904/DTD/svg10.dtd">
<svg version="1.0" xmlns="http://www.w3.org/2000/svg"
 width="80.000000pt" height="80.000000pt" viewBox="0 0 80.000000 80.000000"
 preserveAspectRatio="xMidYMid meet">
<metadata>
Created by potrace 1.14, written by Peter Selinger 2001-2017
</metadata>
<g transform="translate(0.000000,80.000000) scale(0.100000,-0.100000)"
fill="#000000" stroke="none">
<path d="M239 723 c-3 -7 -7 -24 -8 -40 -1 -10 -16 -25 -34 -34 -59 -28 -71
-72 -71 -249 0 -196 11 -226 102 -266 2 -1 4 -15 5 -30 l2 -29 165 0 165 0 1
28 c1 28 17 47 41 47 22 0 52 57 61 113 5 30 7 108 6 172 -4 136 -24 194 -74
215 -30 12 -34 19 -31 53 1 9 -1 18 -6 18 -17 3 -323 4 -324 2z m333 -127 c37
-24 48 -70 48 -196 0 -200 -20 -220 -214 -221 -159 0 -188 9 -212 68 -23 53
-21 260 2 308 27 57 57 66 214 63 112 -3 140 -6 162 -22z"/>
<path d="M363 517 c-13 -5 -28 -25 -35 -43 -7 -19 -16 -34 -20 -34 -4 0 -8
-37 -8 -83 l0 -83 98 0 97 1 3 83 c2 52 -1 82 -8 82 -5 0 -10 6 -10 14 0 23
-42 65 -70 69 -14 3 -35 0 -47 -6z m77 -47 c13 -25 -2 -33 -53 -28 -31 3 -34
5 -26 26 11 29 63 31 79 2z"/>
</g>
</svg>
